<svg xmlns="http://www.w3.org/2000/svg" xmlns:xlink="http://www.w3.org/1999/xlink" width="479" zoomAndPan="magnify" viewBox="0 0 359.25 188.249992" height="251" preserveAspectRatio="xMidYMid meet" version="1.0"><defs><g/><clipPath id="7d1a737bb4"><rect x="0" width="158" y="0" height="101"/></clipPath><clipPath id="b26dcee505"><path d="M 0.113281 23 L 52 23 L 52 77 L 0.113281 77 Z M 0.113281 23 " clip-rule="nonzero"/></clipPath><clipPath id="2716299b52"><rect x="0" width="214" y="0" height="101"/></clipPath><clipPath id="4765e7de4a"><path d="M 29.367188 34.691406 L 38.632812 34.691406 L 38.632812 53.980469 L 29.367188 53.980469 Z M 29.367188 34.691406 " clip-rule="nonzero"/></clipPath><clipPath id="20d756d47c"><path d="M 0.367188 0.691406 L 9.632812 0.691406 L 9.632812 19.980469 L 0.367188 19.980469 Z M 0.367188 0.691406 " clip-rule="nonzero"/></clipPath><clipPath id="43d281d47d"><rect x="0" width="10" y="0" height="20"/></clipPath><clipPath id="ec1934da59"><path d="M 29.375 34.609375 L 187.554688 34.609375 L 187.554688 38.347656 L 29.375 38.347656 Z M 29.375 34.609375 " clip-rule="nonzero"/></clipPath><clipPath id="ff25a9a871"><path d="M 0.375 0.609375 L 158.554688 0.609375 L 158.554688 4.347656 L 0.375 4.347656 Z M 0.375 0.609375 " clip-rule="nonzero"/></clipPath><clipPath id="eba83aeaaa"><rect x="0" width="159" y="0" height="5"/></clipPath><clipPath id="902949ede9"><path d="M 289.5625 142.34375 L 298.828125 142.34375 L 298.828125 162.421875 L 289.5625 162.421875 Z M 289.5625 142.34375 " clip-rule="nonzero"/></clipPath><clipPath id="623d338034"><path d="M 0.5625 0.34375 L 9.828125 0.34375 L 9.828125 20.421875 L 0.5625 20.421875 Z M 0.5625 0.34375 " clip-rule="nonzero"/></clipPath><clipPath id="be8ea2eb01"><rect x="0" width="10" y="0" height="21"/></clipPath><clipPath id="cf1aa1eaa9"><path d="M 140.640625 158.769531 L 298.820312 158.769531 L 298.820312 162.507812 L 140.640625 162.507812 Z M 140.640625 158.769531 " clip-rule="nonzero"/></clipPath><clipPath id="74fff53b90"><path d="M 0.640625 0.769531 L 158.820312 0.769531 L 158.820312 4.507812 L 0.640625 4.507812 Z M 0.640625 0.769531 " clip-rule="nonzero"/></clipPath><clipPath id="50db4edad7"><rect x="0" width="159" y="0" height="5"/></clipPath></defs><g transform="matrix(1, 0, 0, 1, 130, 70)"><g clip-path="url(#7d1a737bb4)"><g fill="#1e1e1e" fill-opacity="1"><g transform="translate(0.9963, 78.560456)"><g><path d="M 13.046875 -51.359375 L 13.046875 0 L 3.765625 0 L 3.765625 -51.359375 Z M 13.046875 -51.359375 "/></g></g></g><g fill="#1e1e1e" fill-opacity="1"><g transform="translate(14.25286, 78.560456)"><g><path d="M 22.1875 0.984375 C 18.332031 0.984375 14.9375 0.125 12 -1.59375 C 9.070312 -3.320312 6.804688 -5.675781 5.203125 -8.65625 C 3.597656 -11.632812 2.796875 -14.9375 2.796875 -18.5625 C 2.796875 -21.957031 3.582031 -25.144531 5.15625 -28.125 C 6.738281 -31.101562 8.984375 -33.5 11.890625 -35.3125 C 14.804688 -37.125 18.191406 -38.03125 22.046875 -38.03125 C 25.910156 -38.03125 29.332031 -37.164062 32.3125 -35.4375 C 35.289062 -33.71875 37.601562 -31.332031 39.25 -28.28125 C 40.90625 -25.238281 41.734375 -21.789062 41.734375 -17.9375 C 41.734375 -17.09375 41.707031 -16.394531 41.65625 -15.84375 L 11.796875 -15.84375 C 12.253906 -13.144531 13.425781 -11.035156 15.3125 -9.515625 C 17.195312 -8.003906 19.488281 -7.25 22.1875 -7.25 C 24.28125 -7.25 26.101562 -7.578125 27.65625 -8.234375 C 29.21875 -8.890625 30.835938 -9.9375 32.515625 -11.375 L 39.140625 -5.859375 C 34.910156 -1.296875 29.257812 0.984375 22.1875 0.984375 Z M 32.375 -23.171875 C 31.769531 -25.304688 30.546875 -27 28.703125 -28.25 C 26.867188 -29.507812 24.695312 -30.140625 22.1875 -30.140625 C 19.863281 -30.140625 17.835938 -29.554688 16.109375 -28.390625 C 14.390625 -27.234375 13.09375 -25.492188 12.21875 -23.171875 Z M 32.375 -23.171875 "/></g></g></g><g fill="#1e1e1e" fill-opacity="1"><g transform="translate(55.209096, 78.560456)"><g><path d="M 20.453125 0.984375 C 17.328125 0.984375 14.40625 0.144531 11.6875 -1.53125 C 8.96875 -3.207031 6.804688 -5.535156 5.203125 -8.515625 C 3.597656 -11.492188 2.796875 -14.816406 2.796875 -18.484375 C 2.796875 -22.253906 3.570312 -25.628906 5.125 -28.609375 C 6.6875 -31.585938 8.789062 -33.898438 11.4375 -35.546875 C 14.09375 -37.203125 17.023438 -38.03125 20.234375 -38.03125 C 24.648438 -38.03125 28.535156 -36.351562 31.890625 -33 L 31.890625 -37.046875 L 41.171875 -37.046875 L 41.171875 0 L 31.890625 0 L 31.890625 -3.90625 C 30.210938 -2.28125 28.453125 -1.054688 26.609375 -0.234375 C 24.773438 0.578125 22.722656 0.984375 20.453125 0.984375 Z M 22.125 -7.53125 C 24.03125 -7.53125 25.757812 -7.984375 27.3125 -8.890625 C 28.875 -9.804688 30.097656 -11.113281 30.984375 -12.8125 C 31.867188 -14.507812 32.3125 -16.445312 32.3125 -18.625 C 32.3125 -20.769531 31.867188 -22.664062 30.984375 -24.3125 C 30.097656 -25.96875 28.882812 -27.25 27.34375 -28.15625 C 25.8125 -29.0625 24.070312 -29.515625 22.125 -29.515625 C 20.125 -29.515625 18.363281 -29.023438 16.84375 -28.046875 C 15.332031 -27.078125 14.171875 -25.765625 13.359375 -24.109375 C 12.546875 -22.453125 12.140625 -20.601562 12.140625 -18.5625 C 12.140625 -16.46875 12.566406 -14.582031 13.421875 -12.90625 C 14.285156 -11.226562 15.472656 -9.910156 16.984375 -8.953125 C 18.503906 -8.003906 20.21875 -7.53125 22.125 -7.53125 Z M 22.125 -7.53125 "/></g></g></g><g fill="#1e1e1e" fill-opacity="1"><g transform="translate(97.560779, 78.560456)"><g><path d="M 12.703125 -37.046875 L 12.703125 -32.375 C 13.535156 -34.238281 14.648438 -35.644531 16.046875 -36.59375 C 17.441406 -37.550781 18.929688 -38.03125 20.515625 -38.03125 C 22.003906 -38.03125 23.351562 -37.703125 24.5625 -37.046875 L 21.703125 -29.09375 C 20.679688 -29.601562 19.773438 -29.859375 18.984375 -29.859375 C 17.441406 -29.859375 16.21875 -28.972656 15.3125 -27.203125 C 14.40625 -25.441406 13.953125 -22.796875 13.953125 -19.265625 L 13.953125 0 L 4.671875 0 L 4.671875 -37.046875 Z M 12.703125 -37.046875 "/></g></g></g><g fill="#1e1e1e" fill-opacity="1"><g transform="translate(118.562085, 78.560456)"><g><path d="M 13.953125 -37.046875 L 13.953125 -33.28125 C 15.859375 -34.863281 17.671875 -36.050781 19.390625 -36.84375 C 21.117188 -37.632812 22.957031 -38.03125 24.90625 -38.03125 C 27.238281 -38.03125 29.367188 -37.515625 31.296875 -36.484375 C 33.222656 -35.460938 34.753906 -33.988281 35.890625 -32.0625 C 37.035156 -30.132812 37.609375 -27.890625 37.609375 -25.328125 L 37.609375 0 L 28.328125 0 L 28.328125 -17.515625 C 28.328125 -20.304688 28.1875 -22.535156 27.90625 -24.203125 C 27.632812 -25.878906 27.039062 -27.179688 26.125 -28.109375 C 25.21875 -29.046875 23.859375 -29.515625 22.046875 -29.515625 C 20.515625 -29.515625 19.128906 -29.082031 17.890625 -28.21875 C 16.660156 -27.363281 15.695312 -26.097656 15 -24.421875 C 14.300781 -22.742188 13.953125 -20.695312 13.953125 -18.28125 L 13.953125 0 L 4.671875 0 L 4.671875 -37.046875 Z M 13.953125 -37.046875 "/></g></g></g></g></g><g transform="matrix(1, 0, 0, 1, 27, 24)"><g clip-path="url(#2716299b52)"><g clip-path="url(#b26dcee505)"><g fill="#d64238" fill-opacity="1"><g transform="translate(2.20439, 76.724864)"><g><path d="M 17.859375 -20.757812 C 35.257812 -21.140625 49.070312 -31.214844 49.070312 -43.730469 C 49.070312 -51.816406 42.890625 -53.421875 34.035156 -53.421875 L 12.132812 -53.421875 L 12.132812 -53.34375 C 16.027344 -52.734375 17.019531 -50.902344 16.101562 -47.164062 L 5.953125 -6.257812 C 5.035156 -2.367188 3.96875 -0.839844 -1.222656 -0.078125 L -1.222656 0 L 20.679688 0 L 20.679688 -0.078125 C 15.035156 -0.914062 13.355469 -2.746094 14.421875 -7.019531 Z M 31.289062 -53.191406 C 36.097656 -53.191406 40.21875 -51.4375 40.21875 -43.730469 C 40.21875 -30.679688 30.222656 -21.828125 17.933594 -21.0625 L 25.949219 -53.191406 Z M 31.289062 -53.191406 "/></g></g></g></g><g fill="#d64238" fill-opacity="1"><g transform="translate(44.863719, 76.724864)"><g><path d="M 34.496094 -39.148438 C 26.710938 -39.148438 17.398438 -16.027344 12.746094 -3.050781 L 19.003906 -28.3125 C 20.605469 -34.800781 19.613281 -39.148438 14.804688 -39.148438 C 9.539062 -39.148438 7.171875 -35.410156 2.976562 -27.167969 L 3.050781 -27.167969 C 7.171875 -35.257812 9.617188 -37.625 11.449219 -37.625 C 12.746094 -37.625 12.898438 -35.867188 11.90625 -31.824219 L 3.96875 0 L 11.980469 0 L 12.285156 -1.144531 C 17.859375 -17.324219 26.40625 -36.632812 32.433594 -36.632812 C 35.179688 -36.632812 34.953125 -31.976562 25.261719 -14.730469 L 25.414062 -14.730469 L 38.082031 -37.089844 C 37.316406 -38.464844 35.792969 -39.148438 34.496094 -39.148438 Z M 34.496094 -39.148438 "/></g></g></g><g fill="#d64238" fill-opacity="1"><g transform="translate(75.541718, 76.724864)"><g><path d="M 16.636719 0.839844 C 29.609375 0.839844 40.449219 -11.449219 40.449219 -25.71875 C 40.449219 -33.882812 35.488281 -38.996094 26.632812 -38.996094 C 13.738281 -38.996094 2.898438 -26.785156 2.898438 -12.4375 C 2.898438 -4.199219 7.859375 0.839844 16.636719 0.839844 Z M 16.941406 0.609375 C 12.898438 0.609375 10.761719 -2.976562 10.761719 -9.386719 C 10.761719 -23.351562 18.699219 -38.769531 26.328125 -38.769531 C 30.449219 -38.769531 32.585938 -35.179688 32.585938 -28.769531 C 32.585938 -14.730469 24.574219 0.609375 16.941406 0.609375 Z M 16.941406 0.609375 "/></g></g></g><g fill="#d64238" fill-opacity="1"><g transform="translate(115.072164, 76.724864)"><g><path d="M 25.871094 -16.558594 L 38.539062 -32.816406 C 36.402344 -36.25 31.976562 -39.148438 26.328125 -39.148438 C 14.117188 -39.148438 2.289062 -25.71875 2.289062 -11.980469 C 2.289062 -4.199219 6.714844 0.839844 14.882812 0.839844 C 23.429688 0.839844 30.753906 -4.960938 34.722656 -14.730469 L 34.648438 -14.730469 C 31.058594 -7.097656 26.101562 -3.738281 19.996094 -3.738281 C 13.660156 -3.738281 10.914062 -7.785156 10.914062 -15.035156 C 10.914062 -28.007812 18.316406 -38.921875 26.40625 -38.921875 C 31.671875 -38.921875 37.699219 -32.816406 25.792969 -16.636719 Z M 25.871094 -16.558594 "/></g></g></g><g fill="#d64238" fill-opacity="1"><g transform="translate(149.718504, 76.724864)"><g><path d="M 29.152344 -38.003906 L 29.230469 -38.234375 L 19.003906 -38.234375 L 21.980469 -49.988281 L 21.902344 -49.988281 C 19.15625 -40.90625 15.035156 -38.996094 6.792969 -38.082031 L 6.792969 -38.003906 L 10.683594 -38.003906 L 3.664062 -9.691406 C 2.058594 -3.359375 3.128906 0.839844 9.464844 0.839844 C 15.261719 0.839844 19.382812 -2.824219 24.039062 -12.4375 L 23.964844 -12.4375 C 19.230469 -3.207031 15.339844 -0.761719 12.515625 -0.761719 C 10.378906 -0.761719 9.996094 -2.976562 11.066406 -7.328125 L 18.925781 -38.003906 Z M 29.152344 -38.003906 "/></g></g></g><g fill="#d64238" fill-opacity="1"><g transform="translate(172.001952, 76.724864)"><g><path d="M 16.636719 0.839844 C 29.609375 0.839844 40.449219 -11.449219 40.449219 -25.71875 C 40.449219 -33.882812 35.488281 -38.996094 26.632812 -38.996094 C 13.738281 -38.996094 2.898438 -26.785156 2.898438 -12.4375 C 2.898438 -4.199219 7.859375 0.839844 16.636719 0.839844 Z M 16.941406 0.609375 C 12.898438 0.609375 10.761719 -2.976562 10.761719 -9.386719 C 10.761719 -23.351562 18.699219 -38.769531 26.328125 -38.769531 C 30.449219 -38.769531 32.585938 -35.179688 32.585938 -28.769531 C 32.585938 -14.730469 24.574219 0.609375 16.941406 0.609375 Z M 16.941406 0.609375 "/></g></g></g></g></g><g clip-path="url(#4765e7de4a)"><g transform="matrix(1, 0, 0, 1, 29, 34)"><g clip-path="url(#43d281d47d)"><g clip-path="url(#20d756d47c)"><path fill="#1e1e1e" d="M 9.632812 19.980469 L 0.367188 19.980469 L 0.367188 0.691406 L 9.632812 0.691406 Z M 9.632812 19.980469 " fill-opacity="1" fill-rule="nonzero"/></g></g></g></g><g clip-path="url(#ec1934da59)"><g transform="matrix(1, 0, 0, 1, 29, 34)"><g clip-path="url(#eba83aeaaa)"><g clip-path="url(#ff25a9a871)"><path fill="#1e1e1e" d="M 0.375 4.347656 L 0.375 0.609375 L 158.5625 0.609375 L 158.5625 4.347656 Z M 0.375 4.347656 " fill-opacity="1" fill-rule="nonzero"/></g></g></g></g><g clip-path="url(#902949ede9)"><g transform="matrix(1, 0, 0, 1, 289, 142)"><g clip-path="url(#be8ea2eb01)"><g clip-path="url(#623d338034)"><path fill="#d64238" d="M 0.5625 0.34375 L 9.828125 0.34375 L 9.828125 20.425781 L 0.5625 20.425781 Z M 0.5625 0.34375 " fill-opacity="1" fill-rule="nonzero"/></g></g></g></g><g clip-path="url(#cf1aa1eaa9)"><g transform="matrix(1, 0, 0, 1, 140, 158)"><g clip-path="url(#50db4edad7)"><g clip-path="url(#74fff53b90)"><path fill="#d64238" d="M 158.820312 0.769531 L 158.820312 4.507812 L 0.632812 4.507812 L 0.632812 0.769531 Z M 158.820312 0.769531 " fill-opacity="1" fill-rule="nonzero"/></g></g></g></g></svg>
